<mxfile host="app.diagrams.net" modified="2021-10-20T09:38:57.839Z" agent="5.0 (Windows NT 10.0; Win64; x64) AppleWebKit/537.36 (KHTML, like Gecko) Chrome/94.0.4606.81 Safari/537.36" etag="KkD73xtNMzl_zlWRzcCr" version="15.4.3" type="github">
  <diagram name="Page-1" id="74e2e168-ea6b-b213-b513-2b3c1d86103e">
    <mxGraphModel dx="868" dy="482" grid="1" gridSize="10" guides="1" tooltips="1" connect="1" arrows="1" fold="1" page="1" pageScale="1" pageWidth="1100" pageHeight="850" background="none" math="0" shadow="0">
      <root>
        <mxCell id="0" />
        <mxCell id="1" parent="0" />
        <mxCell id="77e6c97f196da883-1" value="泳道" style="swimlane;html=1;childLayout=stackLayout;startSize=20;rounded=0;shadow=0;labelBackgroundColor=none;strokeWidth=1;fontFamily=Verdana;fontSize=8;align=center;" parent="1" vertex="1">
          <mxGeometry x="20" y="50" width="830" height="780" as="geometry" />
        </mxCell>
        <mxCell id="77e6c97f196da883-2" value="公司" style="swimlane;html=1;startSize=20;" parent="77e6c97f196da883-1" vertex="1">
          <mxGeometry y="20" width="160" height="760" as="geometry" />
        </mxCell>
        <mxCell id="77e6c97f196da883-8" value="注册公司" style="rounded=1;whiteSpace=wrap;html=1;shadow=0;labelBackgroundColor=none;strokeWidth=1;fontFamily=Verdana;fontSize=8;align=center;" parent="77e6c97f196da883-2" vertex="1">
          <mxGeometry x="20" y="50" width="100" height="40" as="geometry" />
        </mxCell>
        <mxCell id="77e6c97f196da883-3" value="管理员" style="swimlane;html=1;startSize=20;" parent="77e6c97f196da883-1" vertex="1">
          <mxGeometry x="160" y="20" width="150" height="760" as="geometry" />
        </mxCell>
        <mxCell id="77e6c97f196da883-11" value="新增用户" style="rounded=1;whiteSpace=wrap;html=1;shadow=0;labelBackgroundColor=none;strokeWidth=1;fontFamily=Verdana;fontSize=8;align=center;" parent="77e6c97f196da883-3" vertex="1">
          <mxGeometry x="30" y="110" width="100" height="40" as="geometry" />
        </mxCell>
        <mxCell id="Ol4EsbN8dSgfP_Qq6JdE-44" value="生成管理员账号" style="rounded=1;whiteSpace=wrap;html=1;shadow=0;labelBackgroundColor=none;strokeWidth=1;fontFamily=Verdana;fontSize=8;align=center;" vertex="1" parent="77e6c97f196da883-3">
          <mxGeometry x="30" y="50" width="100" height="40" as="geometry" />
        </mxCell>
        <mxCell id="Ol4EsbN8dSgfP_Qq6JdE-92" value="用户权限控制" style="rounded=1;whiteSpace=wrap;html=1;shadow=0;labelBackgroundColor=none;strokeWidth=1;fontFamily=Verdana;fontSize=8;align=center;" vertex="1" parent="77e6c97f196da883-3">
          <mxGeometry x="30" y="170" width="100" height="40" as="geometry" />
        </mxCell>
        <mxCell id="77e6c97f196da883-4" value="系统" style="swimlane;html=1;startSize=20;" parent="77e6c97f196da883-1" vertex="1">
          <mxGeometry x="310" y="20" width="200" height="760" as="geometry" />
        </mxCell>
        <mxCell id="Ol4EsbN8dSgfP_Qq6JdE-105" value="保存用户信息" style="rounded=1;whiteSpace=wrap;html=1;shadow=0;labelBackgroundColor=none;strokeWidth=1;fontFamily=Verdana;fontSize=8;align=center;" vertex="1" parent="77e6c97f196da883-4">
          <mxGeometry x="70" y="110" width="100" height="40" as="geometry" />
        </mxCell>
        <mxCell id="Ol4EsbN8dSgfP_Qq6JdE-108" value="保存变动信息" style="rounded=1;whiteSpace=wrap;html=1;shadow=0;labelBackgroundColor=none;strokeWidth=1;fontFamily=Verdana;fontSize=8;align=center;" vertex="1" parent="77e6c97f196da883-4">
          <mxGeometry x="70" y="170" width="100" height="40" as="geometry" />
        </mxCell>
        <mxCell id="Ol4EsbN8dSgfP_Qq6JdE-111" value="保存文件信息" style="rounded=1;whiteSpace=wrap;html=1;shadow=0;labelBackgroundColor=none;strokeWidth=1;fontFamily=Verdana;fontSize=8;align=center;" vertex="1" parent="77e6c97f196da883-4">
          <mxGeometry x="70" y="330" width="100" height="40" as="geometry" />
        </mxCell>
        <mxCell id="Ol4EsbN8dSgfP_Qq6JdE-115" value="获取文件" style="rounded=1;whiteSpace=wrap;html=1;shadow=0;labelBackgroundColor=none;strokeWidth=1;fontFamily=Verdana;fontSize=8;align=center;" vertex="1" parent="77e6c97f196da883-4">
          <mxGeometry x="70" y="430" width="100" height="40" as="geometry" />
        </mxCell>
        <mxCell id="Ol4EsbN8dSgfP_Qq6JdE-137" style="edgeStyle=orthogonalEdgeStyle;rounded=0;orthogonalLoop=1;jettySize=auto;html=1;entryX=0.5;entryY=0;entryDx=0;entryDy=0;" edge="1" parent="77e6c97f196da883-4" source="Ol4EsbN8dSgfP_Qq6JdE-134" target="Ol4EsbN8dSgfP_Qq6JdE-135">
          <mxGeometry relative="1" as="geometry" />
        </mxCell>
        <mxCell id="Ol4EsbN8dSgfP_Qq6JdE-140" style="edgeStyle=orthogonalEdgeStyle;rounded=0;orthogonalLoop=1;jettySize=auto;html=1;entryX=1;entryY=0.5;entryDx=0;entryDy=0;" edge="1" parent="77e6c97f196da883-4" source="Ol4EsbN8dSgfP_Qq6JdE-134" target="Ol4EsbN8dSgfP_Qq6JdE-139">
          <mxGeometry relative="1" as="geometry" />
        </mxCell>
        <mxCell id="Ol4EsbN8dSgfP_Qq6JdE-134" value="下载文件？" style="rhombus;whiteSpace=wrap;html=1;rounded=0;shadow=0;labelBackgroundColor=none;strokeWidth=1;fontFamily=Verdana;fontSize=8;align=center;" vertex="1" parent="77e6c97f196da883-4">
          <mxGeometry x="110" y="500" width="80" height="60" as="geometry" />
        </mxCell>
        <mxCell id="Ol4EsbN8dSgfP_Qq6JdE-135" value="将文件下载到本地" style="rounded=1;whiteSpace=wrap;html=1;shadow=0;labelBackgroundColor=none;strokeWidth=1;fontFamily=Verdana;fontSize=8;align=center;" vertex="1" parent="77e6c97f196da883-4">
          <mxGeometry x="110" y="590" width="80" height="40" as="geometry" />
        </mxCell>
        <mxCell id="Ol4EsbN8dSgfP_Qq6JdE-139" value="调用浏览器&lt;br&gt;展示" style="rounded=1;whiteSpace=wrap;html=1;shadow=0;labelBackgroundColor=none;strokeWidth=1;fontFamily=Verdana;fontSize=8;align=center;" vertex="1" parent="77e6c97f196da883-4">
          <mxGeometry x="10" y="510" width="70" height="40" as="geometry" />
        </mxCell>
        <mxCell id="Ol4EsbN8dSgfP_Qq6JdE-141" value="保存文件修改信息" style="rounded=1;whiteSpace=wrap;html=1;shadow=0;labelBackgroundColor=none;strokeWidth=1;fontFamily=Verdana;fontSize=8;align=center;" vertex="1" parent="77e6c97f196da883-4">
          <mxGeometry x="60" y="680" width="100" height="40" as="geometry" />
        </mxCell>
        <mxCell id="77e6c97f196da883-6" value="服务器" style="swimlane;html=1;startSize=20;" parent="77e6c97f196da883-1" vertex="1">
          <mxGeometry x="510" y="20" width="160" height="760" as="geometry" />
        </mxCell>
        <mxCell id="Ol4EsbN8dSgfP_Qq6JdE-121" value="保存文件" style="rounded=1;whiteSpace=wrap;html=1;shadow=0;labelBackgroundColor=none;strokeWidth=1;fontFamily=Verdana;fontSize=8;align=center;" vertex="1" parent="77e6c97f196da883-6">
          <mxGeometry x="30" y="380" width="100" height="40" as="geometry" />
        </mxCell>
        <mxCell id="Ol4EsbN8dSgfP_Qq6JdE-123" value="返回文件" style="rounded=1;whiteSpace=wrap;html=1;shadow=0;labelBackgroundColor=none;strokeWidth=1;fontFamily=Verdana;fontSize=8;align=center;" vertex="1" parent="77e6c97f196da883-6">
          <mxGeometry x="30" y="470" width="100" height="40" as="geometry" />
        </mxCell>
        <mxCell id="Ol4EsbN8dSgfP_Qq6JdE-45" style="edgeStyle=orthogonalEdgeStyle;rounded=0;orthogonalLoop=1;jettySize=auto;html=1;entryX=0;entryY=0.5;entryDx=0;entryDy=0;" edge="1" parent="77e6c97f196da883-1" source="77e6c97f196da883-8" target="Ol4EsbN8dSgfP_Qq6JdE-44">
          <mxGeometry relative="1" as="geometry" />
        </mxCell>
        <mxCell id="Ol4EsbN8dSgfP_Qq6JdE-106" style="edgeStyle=orthogonalEdgeStyle;rounded=0;orthogonalLoop=1;jettySize=auto;html=1;entryX=0;entryY=0.5;entryDx=0;entryDy=0;" edge="1" parent="77e6c97f196da883-1" source="77e6c97f196da883-11" target="Ol4EsbN8dSgfP_Qq6JdE-105">
          <mxGeometry relative="1" as="geometry" />
        </mxCell>
        <mxCell id="Ol4EsbN8dSgfP_Qq6JdE-107" style="edgeStyle=orthogonalEdgeStyle;rounded=0;orthogonalLoop=1;jettySize=auto;html=1;entryX=0;entryY=0.5;entryDx=0;entryDy=0;" edge="1" parent="77e6c97f196da883-1" source="Ol4EsbN8dSgfP_Qq6JdE-105" target="Ol4EsbN8dSgfP_Qq6JdE-87">
          <mxGeometry relative="1" as="geometry" />
        </mxCell>
        <mxCell id="Ol4EsbN8dSgfP_Qq6JdE-109" style="edgeStyle=orthogonalEdgeStyle;rounded=0;orthogonalLoop=1;jettySize=auto;html=1;entryX=0;entryY=0.5;entryDx=0;entryDy=0;" edge="1" parent="77e6c97f196da883-1" source="Ol4EsbN8dSgfP_Qq6JdE-92" target="Ol4EsbN8dSgfP_Qq6JdE-108">
          <mxGeometry relative="1" as="geometry" />
        </mxCell>
        <mxCell id="Ol4EsbN8dSgfP_Qq6JdE-110" style="edgeStyle=orthogonalEdgeStyle;rounded=0;orthogonalLoop=1;jettySize=auto;html=1;" edge="1" parent="77e6c97f196da883-1" source="Ol4EsbN8dSgfP_Qq6JdE-108" target="77e6c97f196da883-12">
          <mxGeometry relative="1" as="geometry" />
        </mxCell>
        <mxCell id="Ol4EsbN8dSgfP_Qq6JdE-113" style="edgeStyle=orthogonalEdgeStyle;rounded=0;orthogonalLoop=1;jettySize=auto;html=1;exitX=0;exitY=0.5;exitDx=0;exitDy=0;entryX=1;entryY=0.5;entryDx=0;entryDy=0;" edge="1" parent="77e6c97f196da883-1" source="Ol4EsbN8dSgfP_Qq6JdE-96" target="Ol4EsbN8dSgfP_Qq6JdE-111">
          <mxGeometry relative="1" as="geometry" />
        </mxCell>
        <mxCell id="Ol4EsbN8dSgfP_Qq6JdE-116" style="edgeStyle=orthogonalEdgeStyle;rounded=0;orthogonalLoop=1;jettySize=auto;html=1;" edge="1" parent="77e6c97f196da883-1" source="Ol4EsbN8dSgfP_Qq6JdE-97" target="Ol4EsbN8dSgfP_Qq6JdE-115">
          <mxGeometry relative="1" as="geometry" />
        </mxCell>
        <mxCell id="77e6c97f196da883-5" value="用户" style="swimlane;html=1;startSize=20;" parent="77e6c97f196da883-1" vertex="1">
          <mxGeometry x="670" y="20" width="160" height="760" as="geometry" />
        </mxCell>
        <mxCell id="Ol4EsbN8dSgfP_Qq6JdE-87" value="生成用户账号" style="rounded=1;whiteSpace=wrap;html=1;shadow=0;labelBackgroundColor=none;strokeWidth=1;fontFamily=Verdana;fontSize=8;align=center;" vertex="1" parent="77e6c97f196da883-5">
          <mxGeometry x="30" y="110" width="100" height="40" as="geometry" />
        </mxCell>
        <mxCell id="77e6c97f196da883-12" value="权限变动" style="rounded=1;whiteSpace=wrap;html=1;shadow=0;labelBackgroundColor=none;strokeWidth=1;fontFamily=Verdana;fontSize=8;align=center;" parent="77e6c97f196da883-5" vertex="1">
          <mxGeometry x="30" y="170" width="100" height="40" as="geometry" />
        </mxCell>
        <mxCell id="Ol4EsbN8dSgfP_Qq6JdE-94" value="申请文件操作" style="rounded=1;whiteSpace=wrap;html=1;shadow=0;labelBackgroundColor=none;strokeWidth=1;fontFamily=Verdana;fontSize=8;align=center;" vertex="1" parent="77e6c97f196da883-5">
          <mxGeometry x="30" y="250" width="100" height="40" as="geometry" />
        </mxCell>
        <mxCell id="Ol4EsbN8dSgfP_Qq6JdE-96" value="上传文件？" style="rhombus;whiteSpace=wrap;html=1;rounded=0;shadow=0;labelBackgroundColor=none;strokeWidth=1;fontFamily=Verdana;fontSize=8;align=center;" vertex="1" parent="77e6c97f196da883-5">
          <mxGeometry x="40" y="320" width="80" height="60" as="geometry" />
        </mxCell>
        <mxCell id="Ol4EsbN8dSgfP_Qq6JdE-100" style="edgeStyle=orthogonalEdgeStyle;rounded=0;orthogonalLoop=1;jettySize=auto;html=1;entryX=0.5;entryY=0;entryDx=0;entryDy=0;" edge="1" parent="77e6c97f196da883-5" source="Ol4EsbN8dSgfP_Qq6JdE-94" target="Ol4EsbN8dSgfP_Qq6JdE-96">
          <mxGeometry relative="1" as="geometry" />
        </mxCell>
        <mxCell id="Ol4EsbN8dSgfP_Qq6JdE-97" value="下载/预览文件？" style="rhombus;whiteSpace=wrap;html=1;rounded=0;shadow=0;labelBackgroundColor=none;strokeWidth=1;fontFamily=Verdana;fontSize=8;align=center;" vertex="1" parent="77e6c97f196da883-5">
          <mxGeometry x="40" y="420" width="80" height="60" as="geometry" />
        </mxCell>
        <mxCell id="Ol4EsbN8dSgfP_Qq6JdE-101" style="edgeStyle=orthogonalEdgeStyle;rounded=0;orthogonalLoop=1;jettySize=auto;html=1;" edge="1" parent="77e6c97f196da883-5" source="Ol4EsbN8dSgfP_Qq6JdE-96" target="Ol4EsbN8dSgfP_Qq6JdE-97">
          <mxGeometry relative="1" as="geometry" />
        </mxCell>
        <mxCell id="Ol4EsbN8dSgfP_Qq6JdE-99" value="管理文件？" style="rhombus;whiteSpace=wrap;html=1;rounded=0;shadow=0;labelBackgroundColor=none;strokeWidth=1;fontFamily=Verdana;fontSize=8;align=center;" vertex="1" parent="77e6c97f196da883-5">
          <mxGeometry x="40" y="670" width="80" height="60" as="geometry" />
        </mxCell>
        <mxCell id="Ol4EsbN8dSgfP_Qq6JdE-103" style="edgeStyle=orthogonalEdgeStyle;rounded=0;orthogonalLoop=1;jettySize=auto;html=1;entryX=0.5;entryY=0;entryDx=0;entryDy=0;" edge="1" parent="77e6c97f196da883-5" source="Ol4EsbN8dSgfP_Qq6JdE-97" target="Ol4EsbN8dSgfP_Qq6JdE-99">
          <mxGeometry relative="1" as="geometry">
            <mxPoint x="80" y="620" as="sourcePoint" />
          </mxGeometry>
        </mxCell>
        <mxCell id="Ol4EsbN8dSgfP_Qq6JdE-122" style="edgeStyle=orthogonalEdgeStyle;rounded=0;orthogonalLoop=1;jettySize=auto;html=1;entryX=0;entryY=0.5;entryDx=0;entryDy=0;exitX=0.5;exitY=1;exitDx=0;exitDy=0;" edge="1" parent="77e6c97f196da883-1" source="Ol4EsbN8dSgfP_Qq6JdE-111" target="Ol4EsbN8dSgfP_Qq6JdE-121">
          <mxGeometry relative="1" as="geometry" />
        </mxCell>
        <mxCell id="Ol4EsbN8dSgfP_Qq6JdE-124" style="edgeStyle=orthogonalEdgeStyle;rounded=0;orthogonalLoop=1;jettySize=auto;html=1;exitX=0.5;exitY=1;exitDx=0;exitDy=0;entryX=0;entryY=0.5;entryDx=0;entryDy=0;" edge="1" parent="77e6c97f196da883-1" source="Ol4EsbN8dSgfP_Qq6JdE-115" target="Ol4EsbN8dSgfP_Qq6JdE-123">
          <mxGeometry relative="1" as="geometry" />
        </mxCell>
        <mxCell id="Ol4EsbN8dSgfP_Qq6JdE-133" style="edgeStyle=orthogonalEdgeStyle;rounded=0;orthogonalLoop=1;jettySize=auto;html=1;exitX=0.5;exitY=1;exitDx=0;exitDy=0;" edge="1" parent="77e6c97f196da883-1" source="Ol4EsbN8dSgfP_Qq6JdE-123" target="Ol4EsbN8dSgfP_Qq6JdE-134">
          <mxGeometry relative="1" as="geometry">
            <mxPoint x="450" y="550" as="targetPoint" />
          </mxGeometry>
        </mxCell>
        <mxCell id="Ol4EsbN8dSgfP_Qq6JdE-142" style="edgeStyle=orthogonalEdgeStyle;rounded=0;orthogonalLoop=1;jettySize=auto;html=1;" edge="1" parent="77e6c97f196da883-1" source="Ol4EsbN8dSgfP_Qq6JdE-99" target="Ol4EsbN8dSgfP_Qq6JdE-141">
          <mxGeometry relative="1" as="geometry" />
        </mxCell>
      </root>
    </mxGraphModel>
  </diagram>
</mxfile>
